Coordinates
version=1
nRows=26
nColumns=24
inDegrees=yes

Units are S.I. units (second, meters, Newtons, ...)
Angles are in degrees.

endheader
time	pelvis_tilt	pelvis_list	pelvis_rotation	pelvis_tx	pelvis_ty	pelvis_tz	hip_flexion_r	hip_adduction_r	hip_rotation_r	knee_angle_r	ankle_angle_r	subtalar_angle_r	mtp_angle_r	hip_flexion_l	hip_adduction_l	hip_rotation_l	knee_angle_l	ankle_angle_l	subtalar_angle_l	mtp_angle_l	lumbar_extension	lumbar_bending	lumbar_rotation
      5.04500000	     -0.57555755	      3.16252143	     -0.59464003	      0.88808000	      1.00693339	     -0.23704144	     22.86987607	     -0.64390927	      3.46963024	     -8.05678102	     13.14705226	     -2.39711498	      0.00000000	    -17.88732926	      6.45464601	      3.03833417	     -6.40822457	     15.15311351	     -5.85537534	      0.00000000	    -11.48514123	     -3.22261174	     -8.93951934
      5.05000000	     -0.51710311	      3.09449535	     -0.56719825	      0.89522403	      1.00649516	     -0.23642726	     22.82141019	     -0.50751286	      3.35782474	     -8.77512995	     13.16410914	     -1.93222203	      0.00000000	    -17.93021136	      6.30512675	      2.67987388	     -7.24984083	     15.26175959	     -5.11067563	      0.00000000	    -11.46178143	     -3.12189424	     -8.96623308
      5.05500000	     -0.47286458	      3.00661131	     -0.53669723	      0.90240203	      1.00610809	     -0.23579462	     22.78386084	     -0.35329139	      3.23919011	     -9.51947144	     13.01373312	     -1.53599448	      0.00000000	    -17.93733679	      6.12914922	      2.28770217	     -8.12539383	     15.31573173	     -4.36198711	      0.00000000	    -11.41864693	     -3.00165866	     -8.99105501
      5.06000000	     -0.44384486	      2.89502345	     -0.50012746	      0.90960639	      1.00576762	     -0.23516320	     22.75720419	     -0.18130821	      3.14038903	    -10.27341109	     12.70495821	     -1.22724667	      0.00000000	    -17.90866910	      5.92184745	      1.88443378	     -9.03347306	     15.33435949	     -3.60621078	      0.00000000	    -11.35849028	     -2.85219829	     -9.00692168
      5.06500000	     -0.43010992	      2.75716132	     -0.46846193	      0.91683357	      1.00549548	     -0.23451755	     22.74372478	      0.01802931	      3.03665305	    -11.01583670	     12.23689990	     -1.04825325	      0.00000000	    -17.84206721	      5.68360583	      1.45826880	     -9.97633035	     15.29295613	     -2.85342859	      0.00000000	    -11.27496442	     -2.66877090	     -9.01305794
      5.07000000	     -0.43283449	      2.58849566	     -0.43385819	      0.92402151	      1.00528514	     -0.23386395	     22.74826244	      0.24581896	      2.99970921	    -11.74746960	     11.64895894	     -1.01727696	      0.00000000	    -17.71885049	      5.40716571	      0.99973521	    -10.98150997	     15.23090747	     -2.10477004	      0.00000000	    -11.18852260	     -2.45627320	     -8.98803817
      5.07500000	     -0.44832580	      2.40463101	     -0.42956424	      0.93118201	      1.00516221	     -0.23313906	     22.77503393	      0.50534638	      3.01572689	    -12.46538963	     10.94735903	     -1.18141705	      0.00000000	    -17.56094299	      5.11494935	      0.50296151	    -12.01019088	     15.08737404	     -1.36779278	      0.00000000	    -11.09375298	     -2.23420088	     -8.93891274
      5.08000000	     -0.47901870	      2.18657676	     -0.40871565	      0.93835570	      1.00513850	     -0.23245162	     22.80613514	      0.79227254	      3.06123472	    -13.14936393	     10.22075694	     -1.49656989	      0.00000000	    -17.35504105	      4.77788681	      0.00300286	    -13.08827760	     14.86336429	     -0.67037399	      0.00000000	    -10.98189220	     -1.96997268	     -8.88297341
      5.08500000	     -0.51653751	      1.95729974	     -0.39685233	      0.94552500	      1.00520338	     -0.23175586	     22.84259664	      1.09769846	      3.16882818	    -13.81939941	      9.52674634	     -1.96090928	      0.00000000	    -17.10819390	      4.42433427	     -0.52811473	    -14.21481564	     14.55092780	     -0.00545024	      0.00000000	    -10.86428100	     -1.69469824	     -8.80226953
      5.09000000	     -0.56581591	      1.69812011	     -0.34718148	      0.95271306	      1.00534394	     -0.23115028	     22.88929499	      1.41632344	      3.22932693	    -14.49403683	      8.94456330	     -2.47721067	      0.00000000	    -16.81346239	      4.02542007	     -1.02109063	    -15.39664702	     14.16468555	      0.59980925	      0.00000000	    -10.73414966	     -1.37239223	     -8.75993215
      5.09500000	     -0.60340575	      1.47573481	     -0.33329542	      0.95988193	      1.00556429	     -0.23047096	     22.92727111	      1.71860572	      3.35467159	    -15.17730837	      8.48966124	     -3.05871196	      0.00000000	    -16.48816278	      3.65815945	     -1.59212630	    -16.63702678	     13.65842507	      1.21204365	      0.00000000	    -10.61878780	     -1.10945656	     -8.66670178
      5.10000000	     -0.63557360	      1.25355871	     -0.34371651	      0.96698212	      1.00580790	     -0.22981035	     22.97928544	      2.02929886	      3.50230495	    -15.91124432	      8.20183438	     -3.61088784	      0.00000000	    -16.12489905	      3.29211860	     -2.17694647	    -17.93816060	     13.07994036	      1.75317886	      0.00000000	    -10.53066048	     -0.83562514	     -8.56768912
      5.10500000	     -0.64300266	      1.06688262	     -0.33167094	      0.97413153	      1.00614166	     -0.22917447	     22.99572171	      2.29161810	      3.54062369	    -16.65142775	      8.13344097	     -4.05961607	      0.00000000	    -15.74507808	      2.94125477	     -2.76493804	    -19.29442524	     12.34020811	      2.24650892	      0.00000000	    -10.45812822	     -0.61416475	     -8.46505240
      5.11000000	     -0.65988951	      0.87932539	     -0.34805084	      0.98120547	      1.00646907	     -0.22855756	     23.03051587	      2.56054693	      3.60153853	    -17.42290440	      8.20165919	     -4.39747951	      0.00000000	    -15.29549749	      2.58473411	     -3.39743540	    -20.73706376	     11.52539133	      2.70350809	      0.00000000	    -10.39727360	     -0.37446426	     -8.36627166
      5.11500000	     -0.66565816	      0.71982087	     -0.35721730	      0.98830119	      1.00683085	     -0.22793487	     23.04062023	      2.79363800	      3.58158364	    -18.18813922	      8.44614389	     -4.61740840	      0.00000000	    -14.80687516	      2.23489963	     -4.05253709	    -22.24244521	     10.55390875	      3.10145050	      0.00000000	    -10.34095865	     -0.17728671	     -8.26142774
      5.12000000	     -0.63884410	      0.58268687	     -0.35906628	      0.99538302	      1.00724973	     -0.22731197	     23.00207535	      2.99332425	      3.45503110	    -18.93297835	      8.82373484	     -4.73989387	      0.00000000	    -14.30230631	      1.88618573	     -4.72188222	    -23.80239146	      9.42138148	      3.42596971	      0.00000000	    -10.32566091	     -0.01037211	     -8.14908760
      5.12500000	     -0.64883865	      0.43983684	     -0.38771216	      1.00240408	      1.00762928	     -0.22668275	     22.99194205	      3.19609841	      3.33156271	    -19.66553953	      9.26697764	     -4.70618716	      0.00000000	    -13.69656253	      1.51273750	     -5.44734013	    -25.44306872	      8.16488285	      3.73239917	      0.00000000	    -10.28074369	      0.17221204	     -8.03126133
      5.13000000	     -0.67151342	      0.31593634	     -0.41568550	      1.00938684	      1.00799316	     -0.22603879	     22.97270042	      3.37143086	      3.14422740	    -20.35359385	      9.78086690	     -4.61127126	      0.00000000	    -13.02945050	      1.13631164	     -6.17988809	    -27.12637476	      6.73072875	      3.93687836	      0.00000000	    -10.22572538	      0.32991756	     -7.90852485
      5.13500000	     -0.78988146	      0.26894620	     -0.42270490	      1.01622128	      1.00821901	     -0.22537873	     23.05238333	      3.45667421	      2.92007959	    -21.02699431	     10.35572585	     -4.45951270	      0.00000000	    -12.19165036	      0.81020926	     -6.87519178	    -28.87441272	      5.11873211	      4.03164002	      0.00000000	    -10.07148763	      0.37630701	     -7.81156771
      5.14000000	     -0.71923939	      0.08656070	     -0.40393332	      1.02315175	      1.00874029	     -0.22472476	     22.84196838	      3.66919548	      2.66151095	    -21.54182775	     10.84924452	     -4.40573468	      0.00000000	    -11.54397692	      0.31386339	     -7.58892158	    -30.60680454	      3.33826249	      4.02179889	      0.00000000	    -10.13979958	      0.59480016	     -7.69529503
      5.14500000	     -0.80247686	     -0.00661665	     -0.42424789	      1.02995209	      1.00902680	     -0.22403986	     22.80903398	      3.78822092	      2.39437587	    -22.08162473	     11.47395576	     -4.11636800	      0.00000000	    -10.68936569	     -0.10220516	     -8.29936151	    -32.36232350	      1.39053407	      3.95301599	      0.00000000	    -10.03359340	      0.69990833	     -7.57980419
      5.15000000	     -0.78373124	     -0.19885051	     -0.38997063	      1.03669593	      1.00950482	     -0.22334096	     22.59640024	      4.00424800	      2.12501407	    -22.47297640	     11.91554574	     -4.04404451	      0.00000000	     -9.91137016	     -0.65228822	     -8.94350226	    -34.12150456	     -0.70335260	      3.75664038	      0.00000000	    -10.07220585	      0.91608501	     -7.46748366
      5.15500000	     -0.75928853	     -0.40535576	     -0.34216644	      1.04338744	      1.00993532	     -0.22258161	     22.34270501	      4.23706353	      1.85217833	    -22.79572920	     12.40411738	     -3.97546140	      0.00000000	     -9.10877427	     -1.24744585	     -9.58646462	    -35.89370596	     -2.87164328	      3.46448704	      0.00000000	    -10.12251524	      1.13046414	     -7.33822649
      5.16000000	     -0.94979050	     -0.48161402	     -0.28068177	      1.04985109	      1.01011216	     -0.22193643	     22.34537667	      4.31304342	      1.54903758	    -23.16087871	     12.97022313	     -3.71260265	      0.00000000	     -8.03170766	     -1.68735960	    -10.06899662	    -37.65321002	     -5.23073727	      2.96844567	      0.00000000	     -9.94384251	      1.20359183	     -7.27258492
      5.16500000	     -0.93725021	     -0.76509547	     -0.21045854	      1.05648823	      1.01053932	     -0.22115888	     22.02692188	      4.62577142	      1.29603961	    -23.33160929	     13.38617509	     -3.68482448	      0.00000000	     -7.18402163	     -2.38560651	    -10.60407447	    -39.39613460	     -7.52057058	      2.50959048	      0.00000000	     -9.98452772	      1.50523539	     -7.12612673
      5.17000000	     -1.08702198	     -0.90369744	     -0.08772770	      1.06288313	      1.01078978	     -0.22051223	     21.90092932	      4.76596516	      1.02824485	    -23.52427356	     13.85142903	     -3.59124854	      0.00000000	     -6.11376206	     -2.90554591	    -10.94355936	    -41.11531705	     -9.96655630	      1.79324474	      0.00000000	     -9.86119174	      1.63452523	     -7.08495949
